<svg xmlns="http://www.w3.org/2000/svg" width="101.713" height="66.643" viewBox="0 0 101.713 66.643"><defs><style>.a{fill:#ce383c;}</style></defs><g transform="translate(-33.809 -99.459)"><path class="a" d="M135.135,136.74a84.555,84.555,0,0,0-8-8.306,16.928,16.928,0,1,0-28.011-17.217,47.654,47.654,0,0,0-14.239-2.4c-14.5-.106-27.515,7.293-35.885,13.525a93.017,93.017,0,0,0-14.788,13.62,1.75,1.75,0,0,0-.017,2.216,93.011,93.011,0,0,0,14.576,13.847C63.761,163.547,76.445,166.04,84.445,166.1h.323c14.364,0,27.254-7.341,35.562-13.526a93.016,93.016,0,0,0,14.788-13.62,1.75,1.75,0,0,0,.018-2.216Zm-19.889-33.779a13.431,13.431,0,1,1-13.432,13.431A13.447,13.447,0,0,1,115.246,102.961Zm6.628,34.768a71.978,71.978,0,0,1-20.339,14.647,21.839,21.839,0,0,0,4.858-21.557,16.83,16.83,0,0,0,8.853,2.506,17.039,17.039,0,0,0,1.965-.118C119.314,135.077,120.915,136.7,121.874,137.729ZM85.541,155.843a18.383,18.383,0,1,1,18.383-18.383A18.4,18.4,0,0,1,85.541,155.843ZM63.656,137.46a21.823,21.823,0,0,0,6.994,16.017c-11.451-4.542-20.265-13.18-23.19-16.289,2.967-3.059,11.885-11.534,23.37-15.917A21.833,21.833,0,0,0,63.656,137.46ZM84.472,162.6c-22.852-.176-42.158-20.47-46.593-25.5,4.512-4.962,24.135-24.966,46.98-24.78A44.307,44.307,0,0,1,98.4,114.663a17.1,17.1,0,0,0-.088,1.729c0,.394.018.783.045,1.17a41.269,41.269,0,0,0-13.513-2.5h-.271c-22.281,0-40.065,20.1-40.814,20.954a1.751,1.751,0,0,0-.018,2.281c.738.873,18.334,21.39,40.744,21.554h.271c22.281,0,40.065-20.1,40.814-20.954a1.751,1.751,0,0,0,.018-2.281A59.789,59.789,0,0,0,121.3,132.2a16.884,16.884,0,0,0,3.066-1.554,91.373,91.373,0,0,1,7.088,7.17c-4.507,4.956-24.1,24.955-46.983,24.782Z"/><path class="a" d="M204.327,136.263a1.751,1.751,0,0,0,2.476,0l3.792-3.792,3.792,3.792a1.751,1.751,0,0,0,2.476-2.476l-3.793-3.793,3.793-3.793a1.751,1.751,0,1,0-2.476-2.476l-3.792,3.792-3.792-3.792a1.751,1.751,0,1,0-2.476,2.476l3.793,3.793-3.793,3.793A1.75,1.75,0,0,0,204.327,136.263Z" transform="translate(-95.595 -13.357)"/><path class="a" d="M137.5,160.5a11.285,11.285,0,1,0,11.285,11.285A11.3,11.3,0,0,0,137.5,160.5Zm0,19.068a7.783,7.783,0,1,1,7.783-7.783A7.792,7.792,0,0,1,137.5,179.566Z" transform="translate(-51.962 -34.322)"/></g></svg>