<svg xmlns="http://www.w3.org/2000/svg" width="77.337" height="77.337" viewBox="0 0 77.337 77.337"><defs><style>.a{fill:#ce383c;}</style></defs><g transform="translate(3 -12)"><g transform="translate(-3 12)"><path class="a" d="M72.825,0H4.512A4.517,4.517,0,0,0,0,4.512V72.824a4.518,4.518,0,0,0,4.512,4.514H72.824a4.518,4.518,0,0,0,4.514-4.512V4.512A4.517,4.517,0,0,0,72.825,0Zm1.845,72.825a1.848,1.848,0,0,1-1.845,1.845H4.512a1.848,1.848,0,0,1-1.845-1.845V4.512A1.848,1.848,0,0,1,4.512,2.667H72.824a1.848,1.848,0,0,1,1.847,1.845Z"/><path class="a" d="M5,50.669H21V60H53V50.669H69V4H5Zm2.667-44h58.67V48h-16v9.334H23.668V48h-16Z" transform="translate(1.667 1.334)"/><path class="a" d="M13.333,16.667h24a1.333,1.333,0,1,0,0-2.667h-24a1.333,1.333,0,1,0,0,2.667Z" transform="translate(4.001 4.668)"/><path class="a" d="M49,28H34.333a1.333,1.333,0,0,0,0,2.667H49A1.333,1.333,0,0,0,49,28Z" transform="translate(11.002 9.335)"/><path class="a" d="M13.333,23.667h8a1.333,1.333,0,0,0,0-2.667h-8a1.333,1.333,0,0,0,0,2.667Z" transform="translate(4.001 7.001)"/><path class="a" d="M28,22.333a1.334,1.334,0,0,0,1.333,1.333H44A1.333,1.333,0,0,0,44,21H29.333A1.334,1.334,0,0,0,28,22.333Z" transform="translate(9.335 7.001)"/><path class="a" d="M23.387,21.383a1.333,1.333,0,0,0,.947,2.28,1.377,1.377,0,0,0,.947-.387,1.339,1.339,0,0,0-1.893-1.893Z" transform="translate(7.668 7.006)"/><path class="a" d="M34.334,29.333A1.334,1.334,0,0,0,33,28H18.333a1.333,1.333,0,1,0,0,2.667H33A1.334,1.334,0,0,0,34.334,29.333Z" transform="translate(5.668 9.335)"/><path class="a" d="M12.387,28.383a1.339,1.339,0,0,0,1.893,1.893,1.339,1.339,0,1,0-1.893-1.893Z" transform="translate(4.001 9.339)"/><path class="a" d="M45.333,23.663a1.32,1.32,0,1,0-.947-.387A1.377,1.377,0,0,0,45.333,23.663Z" transform="translate(14.67 7.006)"/></g></g></svg>