<svg xmlns="http://www.w3.org/2000/svg" width="108.8" height="109.876" viewBox="0 0 108.8 109.876"><defs><style>.a,.b,.c{fill:#fff;}.b,.c,.d{stroke:#ce383c;}.b,.d{stroke-width:3px;}.c{stroke-width:2px;}.d,.g{fill:none;}.e,.f{stroke:none;}.f{fill:#ce383c;}</style></defs><g transform="translate(-172.319 -1577.293)"><g class="a" transform="matrix(0.695, -0.719, 0.719, 0.695, 172.319, 1648.606)"><path class="e" d="M 27.12935829162598 54.01309585571289 C 23.62963104248047 54.01309585571289 20.24477386474609 53.33142471313477 17.06881713867188 51.98702621459961 C 14.00008773803711 50.68801116943359 11.25190162658691 48.82723999023438 8.900588035583496 46.45638275146484 C 6.551344871520996 44.08761215209961 4.715087890625 41.3272819519043 3.442844867706299 38.25209808349609 C 2.125316381454468 35.06742477416992 1.471959233283997 31.67834091186523 1.500916361808777 28.17898368835449 C 1.530073404312134 24.65716934204102 2.248402118682861 21.23522567749023 3.635959148406982 18.00819778442383 C 4.977187633514404 14.88891220092773 6.884045124053955 12.08121204376221 9.303544998168945 9.663097381591797 C 11.72310161590576 7.244925975799561 14.53251647949219 5.339097499847412 17.65375900268555 3.998554468154907 C 20.88290214538574 2.611668825149536 24.30713081359863 1.893683195114136 27.8313159942627 1.864526033401489 L 71.78780364990234 1.500911712646484 C 71.86087036132812 1.500311732292175 71.93556976318359 1.499997496604919 72.00851440429688 1.499997496604919 C 75.50824737548828 1.499997496604919 78.89308929443359 2.181668758392334 82.06904602050781 3.526068925857544 C 85.13777160644531 4.825083255767822 87.88595581054688 6.685854434967041 90.23725891113281 9.05671215057373 C 92.58651733398438 11.42548274993896 94.42276000976562 14.18579769134521 95.69499969482422 17.26098251342773 C 97.01252746582031 20.44565391540527 97.66588592529297 23.83473968505859 97.63693237304688 27.33409690856934 C 97.60777282714844 30.85591125488281 96.88944244384766 34.27785491943359 95.50188446044922 37.5048828125 C 94.16065979003906 40.62418365478516 92.25379943847656 43.431884765625 89.83430480957031 45.84999847412109 C 87.41474151611328 48.26816940307617 84.60533142089844 50.17399597167969 81.48408508300781 51.5145263671875 C 78.25494384765625 52.90141296386719 74.83071899414062 53.6193962097168 71.30654144287109 53.64855575561523 L 27.35004425048828 54.01218414306641 C 27.27697372436523 54.01278305053711 27.20230293273926 54.01309585571289 27.12935829162598 54.01309585571289 Z"/><path class="f" d="M 72.00851440429688 3 C 71.93977355957031 3 71.86937713623047 3.000293731689453 71.80020904541016 3.000862121582031 L 27.84371948242188 3.364463806152344 C 24.51995086669922 3.391956329345703 21.29070281982422 4.069015502929688 18.24570465087891 5.376815795898438 C 15.30008697509766 6.641925811767578 12.64826965332031 8.440986633300781 10.36389923095703 10.72404861450195 C 8.079635620117188 13.00699996948242 6.279670715332031 15.6570930480957 5.013961791992188 18.60072326660156 C 3.705657958984375 21.6434326171875 3.028350830078125 24.87020111083984 3.0008544921875 28.19140243530273 C 2.973564147949219 31.48872566223145 3.588607788085938 34.68069458007812 4.82891845703125 37.67866516113281 C 6.026191711425781 40.57267761230469 7.754440307617188 43.17055511474609 9.965621948242188 45.40012359619141 C 12.17884063720703 47.6317253112793 14.76542663574219 49.38312530517578 17.65354919433594 50.60569381713867 C 20.64348602294922 51.87135696411133 23.83161163330078 52.51309585571289 27.12934875488281 52.51309585571289 C 27.19828796386719 52.51309585571289 27.26886749267578 52.51278686523438 27.33763885498047 52.51223373413086 L 71.29411315917969 52.14860153198242 C 74.61790466308594 52.12110900878906 77.84712982177734 51.44406127929688 80.89215087890625 50.13626480102539 C 83.83776092529297 48.87115478515625 86.48957824707031 47.07207870483398 88.77394866943359 44.78903198242188 C 91.05819702148438 42.50608062744141 92.85817718505859 39.85598754882812 94.12387084960938 36.912353515625 C 95.43217468261719 33.86964797973633 96.10948181152344 30.64287948608398 96.13697814941406 27.32167816162109 C 96.16425323486328 24.02435493469238 95.54920959472656 20.83237075805664 94.30891418457031 17.83440017700195 C 93.11162567138672 14.94038772583008 91.38337707519531 12.34251022338867 89.17219543457031 10.11294174194336 C 86.95899200439453 7.881355285644531 84.37240600585938 6.129955291748047 81.48429870605469 4.907402038574219 C 78.49436187744141 3.641738891601562 75.30625915527344 3 72.00851440429688 3 M 72.00852203369141 7.62939453125e-06 C 87.13835144042969 7.62939453125e-06 99.26226043701172 12.19508743286133 99.13687133789062 27.34650993347168 C 99.01084136962891 42.57508087158203 86.55632019042969 55.02246475219727 71.31893157958984 55.14849472045898 L 27.36245727539062 55.51212310791016 C 27.28526306152344 55.51276397705078 27.20639038085938 55.51308822631836 27.12934875488281 55.51308822631836 C 11.99951171875 55.51308822631836 -0.1244430541992188 43.3179931640625 0.0009613037109375 28.16657066345215 C 0.1270065307617188 12.93800354003906 12.58153533935547 0.4906158447265625 27.81890106201172 0.3645706176757812 L 71.775390625 0.000972747802734375 C 71.85258483886719 0.000331878662109375 71.93148803710938 7.62939453125e-06 72.00852203369141 7.62939453125e-06 Z"/></g><g class="b" transform="translate(199.419 1629.811)"><ellipse class="e" cx="5.586" cy="4.571" rx="5.586" ry="4.571"/><ellipse class="g" cx="5.586" cy="4.571" rx="4.086" ry="3.071"/></g><g class="b" transform="translate(195.356 1643.015)"><ellipse class="e" cx="6.602" cy="6.094" rx="6.602" ry="6.094"/><ellipse class="g" cx="6.602" cy="6.094" rx="5.102" ry="4.594"/></g><g class="b" transform="translate(214.654 1643.015)"><circle class="e" cx="3.555" cy="3.555" r="3.555"/><circle class="g" cx="3.555" cy="3.555" r="2.055"/></g><g class="c" transform="translate(214.654 1633.874)"><ellipse class="e" cx="3.047" cy="2.539" rx="3.047" ry="2.539"/><ellipse class="g" cx="3.047" cy="2.539" rx="2.047" ry="1.539"/></g><g class="b" transform="translate(213.638 1658.251)"><ellipse class="e" cx="5.586" cy="5.078" rx="5.586" ry="5.078"/><ellipse class="g" cx="5.586" cy="5.078" rx="4.086" ry="3.578"/></g><g class="b" transform="translate(225.827 1643.015)"><circle class="e" cx="5.586" cy="5.586" r="5.586"/><circle class="g" cx="5.586" cy="5.586" r="4.086"/></g><line class="d" x2="37.511" y2="36.596" transform="translate(208.901 1612.92)"/></g></svg>