<svg xmlns="http://www.w3.org/2000/svg" width="50.265" height="95.025" viewBox="0 0 50.265 95.025"><defs><style>.a{fill:#d04347;}</style></defs><g transform="translate(-15.779 0)"><path class="a" d="M31.5,45.442a5.149,5.149,0,0,0,0-7.838,6.879,6.879,0,0,0-8.75,0,5.15,5.15,0,0,0,0,7.838,6.7,6.7,0,0,0,8.748,0ZM25.251,43.2a2.207,2.207,0,0,1,0-3.359,2.874,2.874,0,0,1,3.748,0h0A2.209,2.209,0,0,1,29,43.2,2.949,2.949,0,0,1,25.251,43.2Z" transform="translate(3.962 21.035)"/><path class="a" d="M32.75,43.6a5.15,5.15,0,0,0,0,7.838,6.7,6.7,0,0,0,8.748,0,5.149,5.149,0,0,0,0-7.838A6.877,6.877,0,0,0,32.75,43.6ZM39,49.2a2.948,2.948,0,0,1-3.748,0,2.207,2.207,0,0,1,0-3.359,2.874,2.874,0,0,1,3.748,0h0A2.207,2.207,0,0,1,39,49.2Z" transform="translate(11.635 24.537)"/><path class="a" d="M25.75,51.6a5.15,5.15,0,0,0,0,7.838,6.7,6.7,0,0,0,8.748,0,5.149,5.149,0,0,0,0-7.838A6.877,6.877,0,0,0,25.75,51.6ZM32,57.2a2.948,2.948,0,0,1-3.748,0,2.207,2.207,0,0,1,0-3.359,2.874,2.874,0,0,1,3.748,0h0A2.207,2.207,0,0,1,32,57.2Z" transform="translate(6.264 29.207)"/><path class="a" d="M65.818,86.737l-.444-1.592a73.045,73.045,0,0,1,.3-37.164,6.086,6.086,0,0,0-1.29-5.782,7.716,7.716,0,0,0-5.9-2.605V38.01a3.386,3.386,0,0,0,3.535-3.3v-2.9a3.386,3.386,0,0,0-3.535-3.3V25.316a3.345,3.345,0,0,0-3.51-3.144H54.7a8.422,8.422,0,0,0-4.272-4.683c-1.841-1.037-2.925-4.778-1.962-6.98a7.189,7.189,0,0,0-.629-6.927A8.166,8.166,0,0,0,41.845.054a10.008,10.008,0,0,0-2.066,0,8.163,8.163,0,0,0-6.005,3.529,7.226,7.226,0,0,0-.594,7.007c.928,2.124-.154,5.863-2,6.9a8.417,8.417,0,0,0-4.271,4.683h-.269a3.345,3.345,0,0,0-3.508,3.144v3.191a3.386,3.386,0,0,0-3.535,3.3v2.9a3.386,3.386,0,0,0,3.535,3.3v1.584a7.766,7.766,0,0,0-5.585,2.439,6.148,6.148,0,0,0-1.543,5.537L17,52.029a76.693,76.693,0,0,1,.173,29.021l-1.271,6.074a6.162,6.162,0,0,0,1.587,5.488,7.783,7.783,0,0,0,5.728,2.414H58.6a7.732,7.732,0,0,0,5.866-2.566A6.1,6.1,0,0,0,65.818,86.737ZM33.065,20.171c3.6-2.027,4.807-7.532,3.365-10.831a4.289,4.289,0,0,1,.378-4.132A4.542,4.542,0,0,1,40.194,3.2a5.538,5.538,0,0,1,1.234,0,4.538,4.538,0,0,1,3.377,2.008,4.33,4.33,0,0,1,.338,4.227c-1.4,3.2-.193,8.709,3.407,10.736a6.679,6.679,0,0,1,2.359,2h-20.2A6.647,6.647,0,0,1,33.065,20.171ZM26.643,25.34h28.3v3.168H26.66Zm-3.508,6.466c0-.073.016-.122.012-.133h35.3a.227.227,0,0,1,.032.133v2.9c0,.074-.018.122,0,.133l-1.757,0H24.9c-.049,0-.09.022-.14.025l-1.591,0a.284.284,0,0,1-.037-.16v-2.9ZM20.284,44.043a4.082,4.082,0,0,1,3.022-1.283h1.6a1.683,1.683,0,0,0,1.767-1.584V38.008H54.946v3.168a1.683,1.683,0,0,0,1.767,1.584H58.48a4.045,4.045,0,0,1,3.1,1.368,3.194,3.194,0,0,1,.677,3.036c-.465,1.562-.864,3.2-1.207,4.892-5.213,4.36-13.923,4.36-18.885-.087-5.694-5.1-15.264-5.608-21.925-1.59l-.765-3.432A3.225,3.225,0,0,1,20.284,44.043ZM61.679,90.51a4.061,4.061,0,0,1-3.08,1.348H23.221a4.092,4.092,0,0,1-3.008-1.265,3.233,3.233,0,0,1-.834-2.881l1.271-6.074A80.821,80.821,0,0,0,20.934,53.9c5.281-4.153,13.824-4.078,18.73.317a17.859,17.859,0,0,0,11.92,4.322A19.193,19.193,0,0,0,60.3,56.456a76.65,76.65,0,0,0,1.644,29.458l.444,1.592A3.2,3.2,0,0,1,61.679,90.51Z" transform="translate(0 0)"/></g></svg>