<svg xmlns="http://www.w3.org/2000/svg" width="51" height="88.938" viewBox="0 0 51 88.938"><defs><style>.a,.c{fill:none;}.a{stroke:#ce383c;stroke-width:2.5px;}.b{stroke:none;}</style></defs><g transform="translate(1061.196 -1286.845)"><g class="a" transform="translate(-1061.196 1315.782)"><rect class="b" width="51" height="60" rx="25"/><rect class="c" x="1.25" y="1.25" width="48.5" height="57.5" rx="23.75"/></g><path class="a" d="M-1022.289,1345.93s-3.321-13.2,4.938-13.2h12.21a4.4,4.4,0,0,1,3.322,3.656c.188,1.316.026,5.563,0,9.545" transform="translate(-22.916 -26.917)"/><path class="a" d="M-1013.5,1305.81v-6.131l.282-4.726s.48-.214,0-.235a15.893,15.893,0,0,1-4.42-.442,2.814,2.814,0,0,1-2.128-2.781c.358-3.043,1.969-3.4,6.266-3.4h12.918l1.1.547,6.932,7.688s2.148,4.834-3.222,4.3c0,.179-6.8-5.908-6.8-5.908h-10.308" transform="translate(-24.881 0)"/><path class="a" d="M-1044.668,1382.559s-1.611-8.772,9.668-8.772" transform="translate(-5.138 -49.803)"/><line class="a" x1="49.136" y2="0.183" transform="translate(-1060.03 1336.898)"/><line class="a" x2="19.45" transform="translate(-1044.946 1344.622)"/><line class="a" x2="11.908" transform="translate(-1040.58 1350.576)"/><line class="a" x2="44.038" transform="translate(-1057.743 1358.448)"/><line class="a" y2="10.718" transform="translate(-1032.244 1295.003)"/></g></svg>