<svg xmlns="http://www.w3.org/2000/svg" width="91.139" height="82.983" viewBox="0 0 91.139 82.983"><defs><style>.a{fill:#ce383c;}</style></defs><g transform="translate(-1088.084 194.623)"><path class="a" d="M129.749,74.155,111.384,55.79a4.809,4.809,0,0,0-8.137,2.538c-.55,3.116-4.012,9.712-5.3,11.99a1.657,1.657,0,0,0,.271,1.987l.911.911L53.565,118.781l-.911-.911a1.658,1.658,0,0,0-2.343,0l-7.29,7.29a1.657,1.657,0,0,0,0,2.343l9.373,9.373a1.658,1.658,0,0,0,2.343,0l7.29-7.29a1.658,1.658,0,0,0,0-2.343l-.911-.911L106.68,80.766l1.953,1.953a1.658,1.658,0,0,0,2.343,0L117.3,76.4a1.213,1.213,0,0,1,1.676,0l5.692,5.692a1.186,1.186,0,0,1-.606,2,1.657,1.657,0,0,0-1.1.772,6.146,6.146,0,0,0-.782,5.456c1.09,2.946,4.426,4.133,4.8,4.259a1.658,1.658,0,0,0,1.7-.4l1.069-1.069a13.4,13.4,0,0,0,0-18.952ZM53.565,133.361l-7.03-7.03,4.947-4.948,7.031,7.031Zm5.208-9.373-2.864-2.864,45.564-45.565,2.865,2.865Zm68.634-33.224-.257.257a3.967,3.967,0,0,1-1.86-1.854,2.623,2.623,0,0,1,.23-2.072,4.5,4.5,0,0,0,1.489-7.349l-5.692-5.692a4.5,4.5,0,0,0-6.362,0L109.8,79.205l-1.953-1.953-5.207-5.207-1.2-1.2c1.343-2.482,4.462-8.5,5.069-11.938a1.437,1.437,0,0,1,1.008-1.142,1.488,1.488,0,0,1,1.523.37L127.407,76.5a10.087,10.087,0,0,1,0,14.266Z" transform="translate(1045.549 -249)"/></g></svg>