<svg xmlns="http://www.w3.org/2000/svg" width="102.543" height="70.789" viewBox="0 0 102.543 70.789"><defs><style>.a,.b{fill:none;stroke:#d04347;stroke-width:3px;}.a{stroke-linecap:round;stroke-linejoin:round;}</style></defs><g transform="translate(-412.671 -1471.373)"><g transform="translate(414.171 1472.869)"><path class="a" d="M-1037.195,1399.547s12.162-11.731,16.84-18.621c3.125-4.6,9.178-10.691,17.214-11.359,3.891-.323,4.845.986,10,3.026,1.31.931,5.716,2.187,5.716,2.187s8.528-5.214,14.328-5.214,10.37,3.538,15.61,9.124,14.782,21.042,19.834,20.855c-1.871,1.676-20.769,24.58-20.769,24.58s-11.975,11.172-19.46,12.476-15.717.559-17.027,0c-1.092-.466-6.31-1.355-11.6-4.841a77.43,77.43,0,0,1-9.917-7.634C-1021.291,1420.775-1037.195,1399.547-1037.195,1399.547Z" transform="translate(1037.195 -1369.536)"/><path class="b" d="M-1030.023,1435.184s15.362-3.3,23.021-8.732c5.109-3.62,9.225-5.714,14.289-5.954a15.725,15.725,0,0,1,8.137,2.183l4.068,1.467.587.019c2.393.032,3.24-1.74,6.062-2.616.98-.314,4.366-2.9,7.343-1.054s4.406,2.933,7.938,5.16c7.652,4.823,16.921,12.131,26.536,10.627" transform="translate(1030.616 -1404.739)"/><path class="b" d="M-1027.228,1469.5s44.046,28.5,92.758-.775" transform="translate(1030.523 -1437.522)"/></g></g></svg>