<svg xmlns="http://www.w3.org/2000/svg" width="219.679" height="33" viewBox="0 0 219.679 33"><defs><style>.a{opacity:0.92;}.b,.c{fill:#fff;}.c{stroke:#707070;}.d{fill:#929b9f;}.e{stroke:none;}.f{fill:none;}</style></defs><g class="a" transform="translate(0 -0.453)"><path class="b" d="M39.35,27.831H36.78q.261-.753,1.229-3.643l.056-.183q.075-.2.186-.529t.168-.529l.223,1.119ZM12.459,26.508l-1.08-6a1.255,1.255,0,0,0-1.4-1.1H4.992l-.037.265a10.173,10.173,0,0,1,7.5,6.838Zm3.333-7.1-3.017,8.913-.317-1.811a7.5,7.5,0,0,0-1.583-2.635,7.223,7.223,0,0,0-2.44-1.8L10.951,32.45H14.21l4.86-13.044H15.792Zm2.589,13.065h3.091l1.937-13.065H20.318Zm14.3-12.739a6.982,6.982,0,0,0-2.775-.549,5.681,5.681,0,0,0-3.743,1.2A3.9,3.9,0,0,0,24.694,23.5q-.019,2.076,2.7,3.541a5.1,5.1,0,0,1,1.248.834,1.126,1.126,0,0,1,.354.794,1.028,1.028,0,0,1-.559.936,2.5,2.5,0,0,1-1.285.326,6.249,6.249,0,0,1-2.905-.672l-.41-.224-.428,2.93a7.642,7.642,0,0,0,3.445.692,5.781,5.781,0,0,0,3.883-1.2,4.134,4.134,0,0,0,1.5-3.256q0-2.157-2.607-3.541a8.876,8.876,0,0,1-1.322-.855,1,1,0,0,1-.41-.773.964.964,0,0,1,.456-.783,2.19,2.19,0,0,1,1.313-.336,4.874,4.874,0,0,1,2.309.488l.279.163Zm7.914-.326H38.214a1.58,1.58,0,0,0-1.62,1.1L32.012,32.471h3.24l.652-1.954h3.948q.093.448.372,1.954h2.868Zm4.879-6.512V38.942a2.623,2.623,0,0,1-.708,1.832,2.2,2.2,0,0,1-1.676.773H4.954a2.2,2.2,0,0,1-1.676-.773,2.622,2.622,0,0,1-.708-1.832V12.894a2.623,2.623,0,0,1,.708-1.832,2.2,2.2,0,0,1,1.676-.773H43.093a2.2,2.2,0,0,1,1.676.773,2.622,2.622,0,0,1,.708,1.832Z" transform="translate(-2.571 -8.346)"/><path class="b" d="M34.2,29.045a.794.794,0,1,1-.793-.829A.792.792,0,0,1,34.2,29.045ZM12.19,28.216a.831.831,0,1,0,.772.829A.783.783,0,0,0,12.19,28.216Zm8.323-.021a.657.657,0,0,0-.673.616h1.353A.651.651,0,0,0,20.513,28.195Zm7.636.021a.83.83,0,1,0,.793.829A.783.783,0,0,0,28.148,28.216Zm7.5,1.849c0,.021.021.035.021.078,0,.021-.021.035-.021.078a.248.248,0,0,0-.035.057.091.091,0,0,1-.078.035c-.021.021-.035.021-.078.021a.14.14,0,0,1-.078-.021c-.021,0-.035-.021-.057-.035s-.035-.035-.035-.057a.129.129,0,0,1-.021-.078c0-.035,0-.057.021-.078a.133.133,0,0,1,.035-.078.249.249,0,0,1,.057-.035.129.129,0,0,1,.078-.021c.035,0,.057,0,.078.021s.057.021.078.035S35.628,30.029,35.649,30.065Zm-.156.1c.035,0,.035-.021.057-.021a.086.086,0,0,0,0-.113c-.021,0-.035-.021-.078-.021h-.113v.248h.057v-.1h.021l.078.1h.057l-.078-.092ZM40.8,5.72V30.653a3.4,3.4,0,0,1-3.4,3.4H3.4a3.4,3.4,0,0,1-3.4-3.4V5.72a3.4,3.4,0,0,1,3.4-3.4h34A3.4,3.4,0,0,1,40.8,5.72ZM4.533,15.608a9.806,9.806,0,0,0,15.229,8.174,10.563,10.563,0,0,1,0-16.327A9.806,9.806,0,0,0,4.533,15.608ZM20.4,23.315a9.807,9.807,0,0,0,0-15.406A9.807,9.807,0,0,0,20.4,23.315Zm-10.079,5.4a.993.993,0,0,0-1.041-1.041,1.013,1.013,0,0,0-.907.46.939.939,0,0,0-.864-.46.9.9,0,0,0-.751.382v-.312H6.176v2.6h.581c0-1.339-.177-2.139.637-2.139.722,0,.581.722.581,2.139h.56c0-1.3-.177-2.139.637-2.139.722,0,.581.708.581,2.139h.581V28.719Zm3.18-.97h-.56v.312a1.021,1.021,0,0,0-.829-.382,1.369,1.369,0,0,0,0,2.734.982.982,0,0,0,.829-.382v.326h.56Zm2.869,1.813c0-1.062-1.622-.581-1.622-1.077,0-.4.843-.34,1.31-.078l.234-.46c-.666-.432-2.139-.425-2.139.581s1.622.588,1.622,1.062c0,.446-.956.411-1.466.057l-.248.446C14.853,30.631,16.369,30.518,16.369,29.562Zm2.507.659-.156-.482c-.269.149-.864.312-.864-.29V28.273h.928v-.524h-.928v-.793h-.581v.793h-.538v.517h.538v1.183c0,1.247,1.225,1.02,1.6.772Zm.942-.949h1.948c0-1.147-.524-1.6-1.232-1.6a1.275,1.275,0,0,0-1.289,1.367,1.413,1.413,0,0,0,2.394,1.006l-.269-.425C20.817,30.072,19.981,30.029,19.819,29.272ZM24,27.749a.831.831,0,0,0-1.077.312v-.312h-.581v2.6h.581V28.882a.591.591,0,0,1,.907-.595l.17-.538Zm.751,1.3c0-.807.822-1.07,1.466-.595l.269-.46a1.4,1.4,0,1,0,0,2.125l-.269-.46C25.57,30.114,24.755,29.838,24.755,29.045Zm4.724-1.3H28.9v.312a1.288,1.288,0,1,0,0,1.969v.326h.581V27.749Zm2.387,0a.851.851,0,0,0-1.077.312v-.312h-.56v2.6h.56V28.882a.594.594,0,0,1,.907-.595l.17-.538Zm2.854-1.055h-.56V28.06a1.288,1.288,0,1,0,0,1.969v.326h.56Zm.538-5.319V21.7h.057v-.326h.135v-.057h-.326v.057h.135Zm.467,8.769a.216.216,0,0,0-.021-.113c-.021-.021-.035-.057-.057-.078s-.057-.035-.078-.057c-.035,0-.078-.021-.113-.021a.753.753,0,0,1-.1.021.37.37,0,0,0-.078.057.111.111,0,0,0-.057.078.216.216,0,0,0-.021.113.206.206,0,0,0,.021.1.111.111,0,0,0,.057.078.246.246,0,0,0,.078.057.192.192,0,0,0,.1.021.216.216,0,0,0,.113-.021c.021-.021.057-.035.078-.057s.035-.057.057-.078A.206.206,0,0,0,35.727,30.143Zm.227-8.833h-.1l-.113.248-.113-.248h-.1v.382h.057V21.4l.113.248h.078l.1-.248v.29h.078Zm.312-5.7a9.806,9.806,0,0,0-15.229-8.16,10.563,10.563,0,0,1,0,16.327,9.806,9.806,0,0,0,15.229-8.167Z" transform="translate(61.42 -0.851)"/><path class="b" d="M13.2,18.272a1.52,1.52,0,0,1-1.558,1.523A1.023,1.023,0,0,1,10.5,18.732a1.536,1.536,0,0,1,1.537-1.558A1.064,1.064,0,0,1,13.2,18.272ZM5.7,14.837H5.369a.222.222,0,0,0-.227.191l-.3,1.891.581-.021c.779,0,1.381-.106,1.523-1.006C7.1,14.943,6.5,14.837,5.7,14.837Zm20.116,0H25.5a.208.208,0,0,0-.227.191l-.3,1.891.567-.021c.921,0,1.558-.212,1.558-1.275C27.093,14.872,26.42,14.837,25.818,14.837ZM40.8,5.65V30.582a3.4,3.4,0,0,1-3.4,3.4H3.4a3.4,3.4,0,0,1-3.4-3.4V5.65a3.4,3.4,0,0,1,3.4-3.4h34A3.4,3.4,0,0,1,40.8,5.65ZM9.088,15.24c0-1.487-1.147-1.983-2.458-1.983H3.8a.374.374,0,0,0-.368.333L2.267,20.822a.244.244,0,0,0,.227.283H3.839a.452.452,0,0,0,.39-.4l.319-1.884c.071-.51.935-.333,1.275-.333A3,3,0,0,0,9.088,15.24Zm5.964.623H13.706c-.269,0-.283.39-.3.581a1.808,1.808,0,0,0-1.679-.708,3.16,3.16,0,0,0-3.06,3.2,2.114,2.114,0,0,0,2.245,2.281,2.759,2.759,0,0,0,1.877-.843,1.893,1.893,0,0,0-.071.439c0,.163.071.283.227.283h1.218c.191,0,.354-.205.39-.4l.722-4.554A.241.241,0,0,0,15.052,15.864ZM17.92,22.8l4.512-6.559a.145.145,0,0,0,.035-.12.253.253,0,0,0-.227-.248h-1.36a.4.4,0,0,0-.319.177L18.685,18.81l-.779-2.656a.43.43,0,0,0-.39-.283H16.192a.253.253,0,0,0-.227.248c0,.085,1.381,4.023,1.5,4.4a18.3,18.3,0,0,0-1.452,2.238.228.228,0,0,0,.227.227H17.6a.417.417,0,0,0,.319-.184ZM29.2,15.24c0-1.487-1.147-1.983-2.458-1.983H23.934a.39.39,0,0,0-.39.333L22.4,20.815a.253.253,0,0,0,.227.283h1.452a.3.3,0,0,0,.283-.227l.319-2.054c.071-.51.935-.333,1.275-.333A2.991,2.991,0,0,0,29.2,15.24Zm5.964.623H33.822c-.269,0-.283.39-.3.581a1.776,1.776,0,0,0-1.679-.708,3.16,3.16,0,0,0-3.06,3.2,2.114,2.114,0,0,0,2.245,2.281,2.678,2.678,0,0,0,1.877-.843,3.148,3.148,0,0,0-.071.439c0,.163.071.283.227.283h1.225c.191,0,.354-.205.39-.4l.722-4.554A.241.241,0,0,0,35.168,15.864Zm3.364-2.359a.238.238,0,0,0-.227-.248H37a.235.235,0,0,0-.227.191l-1.147,7.366-.021.035a.251.251,0,0,0,.248.248h1.169a.439.439,0,0,0,.368-.4l1.147-7.168v-.021Zm-6.375,3.669a1.531,1.531,0,0,0-1.537,1.558,1.038,1.038,0,0,0,1.147,1.062A1.51,1.51,0,0,0,33.3,18.272,1.054,1.054,0,0,0,32.157,17.174Z" transform="translate(178.88 -1.788)"/><g class="c" transform="translate(120.309 0.453)"><path class="e" d="M6,0H36a5,5,0,0,1,5,5V27a6,6,0,0,1-6,6H7a7,7,0,0,1-7-7V6A6,6,0,0,1,6,0Z"/><path class="f" d="M6,.5H36A4.5,4.5,0,0,1,40.5,5V27A5.5,5.5,0,0,1,35,32.5H7A6.5,6.5,0,0,1,.5,26V6A5.5,5.5,0,0,1,6,.5Z"/></g><path class="d" d="M24.2,17.879a.807.807,0,0,0-.52-.777,2.881,2.881,0,0,0-1.224-.169H20.124v3.521h1.02V19.173h1.088a1.052,1.052,0,0,1,.722.156c.181.162.157.475.157.687v.437h1V19.76a.918.918,0,0,0-.163-.644,1.15,1.15,0,0,0-.5-.292l.03-.01a1,1,0,0,0,.725-.933Zm-1.315.508-.042,0a1.13,1.13,0,0,1-.5.072H21.12V17.67h1.245a1.255,1.255,0,0,1,.5.062.328.328,0,0,1,.227.318.358.358,0,0,1-.2.337ZM30.67,19.7H28.71v.749h1.97c1.021,0,1.587-.347,1.587-1.1a.894.894,0,0,0-.283-.727,2.042,2.042,0,0,0-1.1-.258l-.568-.019a1.2,1.2,0,0,1-.385-.037.274.274,0,0,1-.227-.262.257.257,0,0,1,.136-.262.879.879,0,0,1,.411-.075h1.859v-.752h-2.04c-1.064,0-1.448.546-1.448,1.049,0,1.124,1.173,1.068,2.126,1.086a.546.546,0,0,1,.34.075.267.267,0,0,1,.124.225.263.263,0,0,1-.121.225.714.714,0,0,1-.419.087Zm-20.108-9.5H1.224L0,12.532l1.224-2.343H3.868l.112.015.228-.015,4.427.016-.66,1.257.66-1.265h9.825l.849-.009.317.016H31.194l.015-.016.369.015H34.25l-.015,6.1H32.965l-1.2-.741-.778-.444H27.436l-.159-.02H17.929v-1.1c0-.15.044,1.123-.07,1.1l-.16.039-.088-.017H9.168L8.85,15.1v.021H7.087V15.1H3.377l-.447.036H2.311L1.729,15.1l5.437.036v6.111c.146,0,19.876,0,14.768,0V19.969c0-.15.267,0,.113,0h-.113v1.276H17.488c-.45.17.431.017-.157-.04v.04l-3.137-.019-.813.019-.864-.04-5.351.04V15.134h9.971l2.651-.036s.68-.012,1.244,0,1.015.039,1.015.039l1.881-.039v.039c.305,0,.1-.225.5,0l1.1-.039,3.554.039h1.171l.226-.039.518.039,1.973,1.129V16.3l.575-.037h.694l-.076-.7.091,1V10.189H23.275l-4.152.016ZM31.968,18.6c.006.006.009.015.015.02s.036.012.048.025l-.063-.044Zm3.119-2.018L34.068,16.3l2.035.653h-.1Zm.975,2.112v-.006c-.045-.031-.07-.06-.113-.087a1.846,1.846,0,0,0-1.154-.281L34.25,18.3a1.6,1.6,0,0,1-.408-.037A.274.274,0,0,1,33.615,18a.28.28,0,0,1,.136-.255.869.869,0,0,1,.408-.062h1.848v-.734H34.068c-1.043,0-1.451.546-1.451,1.049,0,1.124,1.179,1.068,2.131,1.086a.538.538,0,0,1,.338.075.26.26,0,0,1,.115.225.271.271,0,0,1-.136.225c-.068.07-.206.087-.408.087H32.711v.755h1.945a1.725,1.725,0,0,0,1.36-.45h.045a.984.984,0,0,0,.2-.653.961.961,0,0,0-.2-.657ZM28.1,17.667v-.728H24.724v3.538H28.1v-.731H25.729v-.712h2.316V18.3H25.73v-.637M20.414,10.9H21.45V14.41H20.416Zm-.58.944-.011.007a.808.808,0,0,0-.514-.779,2.834,2.834,0,0,0-1.224-.169H15.76v3.521h1.018V13.131h1.088a1.214,1.214,0,0,1,.736.15c.184.17.162.472.162.684v.442h1.023v-.691a.883.883,0,0,0-.166-.644,1.213,1.213,0,0,0-.5-.3,1.012,1.012,0,0,0,.713-.937Zm-1.292.494H18.52a1.115,1.115,0,0,1-.5.07H16.773v-.778h1.247a1.352,1.352,0,0,1,.5.062.323.323,0,0,1,.227.312.342.342,0,0,1-.2.332Zm5.514-.707h.955V10.88h-.973a2.333,2.333,0,0,0-1.541.412,1.705,1.705,0,0,0-.547,1.386,1.6,1.6,0,0,0,.544,1.341,2.429,2.429,0,0,0,1.466.387h1.179l.385-.783h2.1l.4.783h2.055V11.772L32,14.406h1.436l0,0V10.9H32.4v2.451L30.619,10.9H29.077v3.26l-1.712-3.317H25.848l-1.425,2.772H23.97a1.187,1.187,0,0,1-.707-.167,1.094,1.094,0,0,1-.281-.827,1.038,1.038,0,0,1,.293-.787,1.08,1.08,0,0,1,.78-.206Zm2.52-.135.7,1.4v0H25.872l.7-1.4ZM3.6,13.623l.384.784H6.044V11.654l1.469,2.753H8.4l1.47-2.75.023,2.75h1.043V10.9H9.245L8.025,13.276,6.7,10.9H5.051v3.325L3.332,10.9H1.825L.015,14.406H1.1l.393-.782H3.6Zm-1.04-2.129.7,1.4,0,0H1.865l.691-1.4Zm15.358,5.438H14.678l-1.284,1.153-1.247-1.151H8.078v3.521h4.01l1.292-1.164,1.245,1.161h1.967V19.279h1.266c.907,0,1.768-.2,1.768-1.18l-.009,0c0-.974-.9-1.161-1.7-1.161ZM11.59,19.721l-.021,0H9.1v-.7h2.221v-.717H9.1v-.637h2.539l1.108,1.024-1.154,1.029Zm3.992.412L14.026,18.7l1.556-1.384V20.13Zm2.347-1.571H16.591v-.9h1.337c.363,0,.635.122.635.43s-.227.465-.635.465Zm-2.868-6.933V10.9h-3.38V14.41h3.38v-.724H12.693v-.7H15v-.719H12.693v-.633" transform="translate(123.626 1.544)"/></g></svg>