<svg xmlns="http://www.w3.org/2000/svg" width="76.942" height="86.401" viewBox="0 0 76.942 86.401"><defs><style>.a{fill:#ce383c;}</style></defs><path class="a" d="M77.439,30.1a14.2,14.2,0,0,0-8.632-13.375,11.447,11.447,0,0,0-9.791-9.546A7.754,7.754,0,0,0,58.734,5.7a7.962,7.962,0,0,0-6.6-5.636,7.863,7.863,0,0,0-5.462,1.365A8.493,8.493,0,0,0,41.986,0a8.588,8.588,0,0,0-8.478,7.292c-.153.031-.3.074-.45.111-.141-.341-.287-.677-.452-1C30.413,2.058,26.54-.465,22.951.115a7.415,7.415,0,0,0-5.451,4.4,8.025,8.025,0,0,0-6.094-.443A7.832,7.832,0,0,0,6.831,8.5a14.2,14.2,0,0,0-.044,10.153,9.6,9.6,0,0,0-3.61,4.893A15.3,15.3,0,0,0,4.288,35.175c.21.423.44.844.69,1.256A9.644,9.644,0,0,0,1.1,41.463,13.345,13.345,0,0,0,2.5,52.339a16.246,16.246,0,0,0,3.616,4.317A8.469,8.469,0,0,0,7.172,62.9a10.313,10.313,0,0,0,7.755,5.024C19.859,77.183,25.978,81.16,35.4,85.152l.1.045a8.117,8.117,0,0,0,4.328,1.2,9.524,9.524,0,0,0,2.588-.371c.013,0,.027,0,.04-.007a.14.14,0,0,0,.016-.011,8.845,8.845,0,0,0,1.966-.824,6.051,6.051,0,0,0,3.011-7.413c-2.846-8.35-2.614-14.621.689-18.635C53.856,52.2,67.12,53.9,67.251,53.925l1.543.21.154-1.549c.021-.2.464-5.04-2.358-8.326q-.245-.286-.515-.545a13.53,13.53,0,0,0,2.361-.758,14.452,14.452,0,0,0,9-12.859ZM17.2,65.778l-.421-.825-.926.006h-.039a7.278,7.278,0,0,1-6.047-3.581,5.271,5.271,0,0,1-.515-4.683L9.7,55.6l-.958-.7A13.193,13.193,0,0,1,5.1,50.841,10.363,10.363,0,0,1,3.944,42.43a6.564,6.564,0,0,1,3.781-4.065L9.5,37.631,8.359,36.087a14.955,14.955,0,0,1-1.38-2.244,12.468,12.468,0,0,1-.964-9.313A6.46,6.46,0,0,1,9.3,20.66l1.285-.615-.548-1.316-.067-.142A11.544,11.544,0,0,1,9.58,9.707,4.97,4.97,0,0,1,12.4,6.9a5.712,5.712,0,0,1,5.052,1.024l1.732,1.168.552-2.016c.621-2.26,1.966-3.718,3.692-4,2.25-.383,4.916,1.556,6.49,4.672.126.25.243.506.351.767-.035.019-.063.045-.1.065a10.391,10.391,0,0,0-.893.594c-.173.127-.335.261-.5.4-.109.092-.216.186-.321.28a10.575,10.575,0,0,0-1.6,1.8c-.034.049-.066.1-.1.149a10.673,10.673,0,0,0-.715,1.226c-.053.1-.107.207-.156.312-.092.2-.175.4-.254.611s-.156.435-.225.657c-.057.185-.114.368-.16.557a10.011,10.011,0,0,0-.2.985c-.018.122-.034.242-.049.365a10.444,10.444,0,0,0-.082,1.25c0,.275.012.549.033.829A12.083,12.083,0,0,0,16.1,35.491a9.277,9.277,0,0,0,2.674,14.65c-.007.8,0,1.585.032,2.352.009.25.028.494.041.742.025.51.055,1.019.1,1.515.024.284.057.562.085.84.047.449.1.9.16,1.332.039.285.084.569.129.85q.1.631.222,1.247.081.416.171.829c.09.409.189.817.293,1.219.067.26.132.519.2.776.119.422.248.837.381,1.25.073.227.141.456.218.682.169.5.355.988.548,1.477.053.133.1.272.153.4q.376.927.806,1.84c.081.173.171.343.255.515.212.435.426.869.657,1.3.123.231.255.463.384.695.206.371.413.742.632,1.109.148.25.3.5.456.75.215.35.434.7.661,1.049q.25.388.51.775.349.52.716,1.042c.18.258.362.516.549.775.257.354.523.711.79,1.069.191.254.376.508.573.763.291.38.6.764.9,1.148.186.235.366.468.557.705l.049.063A29.4,29.4,0,0,1,17.2,65.778ZM60.612,40.716l-.4-.067-1.453.336L58.6,44.3l1.5.08A5.614,5.614,0,0,1,64.3,46.2a8.021,8.021,0,0,1,1.648,4.583c-4.129-.269-14.627-.229-20.122,6.436-4.016,4.871-4.426,12.11-1.22,21.518a3.136,3.136,0,0,1-1.684,3.853c-.066.04-.141.065-.208.1a94.492,94.492,0,0,1-5.756-19.349c-.007-.036-.009-.071-.016-.1a58.785,58.785,0,0,1-.887-12.3c2.1-3.583,8.278-3.727,8.341-3.728a1.5,1.5,0,0,0-.02-3h-.018a17.114,17.114,0,0,0-7.919,2.225A38.579,38.579,0,0,1,38.395,38.5a1.487,1.487,0,0,0,.218-.341,1.465,1.465,0,0,0,.131-.591,32.6,32.6,0,0,1,3.72-6.876,21.767,21.767,0,0,1,11.92.752,1.478,1.478,0,0,0,.6.126,1.5,1.5,0,0,0,.6-2.875,23.4,23.4,0,0,0-10.3-1.425,23.866,23.866,0,0,1,5.842-4.6c2.181-1.045,5.367.3,6.413.916a1.484,1.484,0,0,0,.759.207,1.5,1.5,0,0,0,.763-2.793,12.781,12.781,0,0,0-7-1.662,8.416,8.416,0,0,1,1.286-2.767,1.5,1.5,0,0,0-2.385-1.821,10.59,10.59,0,0,0-2.059,5.74A32.507,32.507,0,0,0,37.126,34.022c-.213.438-.419.91-.623,1.383-4.094-2.8-3.421-7.78-3.383-8.021a1.5,1.5,0,0,0-2.966-.469A11.419,11.419,0,0,0,35.4,38.268,44.369,44.369,0,0,0,33.175,50.1a1.482,1.482,0,0,0-.024.43,60.25,60.25,0,0,0,.516,10.782,7.521,7.521,0,0,1-2.829-2.684,1.5,1.5,0,0,0-2.653,1.406,10.686,10.686,0,0,0,6.029,4.757,96.492,96.492,0,0,0,5.543,18.6,5.146,5.146,0,0,1-2.682-.752v0c-.161-.1-.3-.2-.429-.307a3.986,3.986,0,0,1-.473-.425l-.024-.023-.631-.717c-9.4-10.817-14.1-18.73-13.729-31.963l.032-1.094-1.033-.363A6.274,6.274,0,0,1,18.9,36.974l.985-.807-.639-1.1a9.087,9.087,0,0,1,7.5-13.642l1.823-.076-.426-1.775a7.673,7.673,0,0,1-.22-1.793,7.579,7.579,0,0,1,.131-1.351c.019-.113.051-.22.074-.33a7.73,7.73,0,0,1,.3-1.007c.033-.09.068-.179.105-.268a7.693,7.693,0,0,1,.572-1.112c.009-.013.015-.028.024-.042A7.845,7.845,0,0,1,30.933,11.7c.1-.075.2-.141.3-.212a7.753,7.753,0,0,1,.748-.459c.162-.087.324-.171.494-.246a7.549,7.549,0,0,1,2.547-.669l1.387-.105v-1.4l0-.117a5.551,5.551,0,0,1,9.3-4.036l1.053.95,1.009-1a4.851,4.851,0,0,1,4.02-1.37,4.919,4.919,0,0,1,4.067,3.5,4.624,4.624,0,0,1,.162,1.864l-.155,1.674h1.689A8.417,8.417,0,0,1,65.919,17.9l.069.985.932.328a11.207,11.207,0,0,1,7.517,10.828,11.445,11.445,0,0,1-7.169,10.153,10.423,10.423,0,0,1-6.656.524Zm0,0" transform="translate(-0.5 -0.001)"/></svg>